<svg width="195" height="87" viewBox="0 0 195 87" fill="none" xmlns="http://www.w3.org/2000/svg">
<path fill-rule="evenodd" clip-rule="evenodd" d="M53.4361 71.6192C49.0101 73.4099 44.5817 75.201 40.1101 76.8196C21.1832 83.6714 4.06765 84.1826 1.88851 77.9617C1.72425 77.4936 1.06991 75.8852 0.9375 75.3874C1.13635 75.6266 1.51903 75.9499 1.68921 76.079C6.08707 79.417 14.9083 79.559 27.3502 76.5124C31.3981 75.4656 35.9002 74.1764 40.5356 72.481C44.3096 71.1002 48.818 69.2197 53.4375 67.3125V71.547L53.4361 71.6192Z" fill="#696868"/>
<path fill-rule="evenodd" clip-rule="evenodd" d="M61.8736 63.1847C54.0633 66.1477 46.2966 69.3077 38.4435 72.1451C19.5205 78.9807 2.40807 79.4907 0.229386 73.2842C-1.59582 68.0833 7.64302 59.8151 21.8175 53.25L22.4926 55.0809C11.7033 60.5545 4.85199 66.737 6.21134 70.4255C7.95738 75.1626 22.5813 73.9935 38.8689 67.8156C46.5423 64.9057 54.2007 61.9483 61.875 59.0375V63.103L61.8736 63.1847Z" fill="#696868"/>
<path fill-rule="evenodd" clip-rule="evenodd" d="M45.9375 79.9187C44.6182 80.423 43.2976 80.9209 41.9752 81.4095C22.4876 88.6143 5.83996 88.764 3.70322 82.3855C3.54628 81.9171 2.94443 80.4792 2.8125 79.9836C3.0113 80.2226 3.39343 80.5437 3.56402 80.6726C7.96077 83.9961 16.7793 84.1371 29.2185 81.1037C33.2649 80.061 37.7663 78.7778 42.4001 77.0898C43.5174 76.6831 44.6988 76.2327 45.9284 75.75L45.9375 76.3156V79.9187Z" fill="#696868"/>
<path fill-rule="evenodd" clip-rule="evenodd" d="M159.054 54.9645V51.2812H161.068C161.478 51.2812 162.012 51.2299 162.258 51.0999C162.628 50.9187 162.67 50.6597 162.67 50.4256V49.57H159.054V46.3016H162.67V46.0944C162.67 45.8609 162.628 45.4978 162.258 45.1865C161.642 44.6681 160.616 44.6417 159.794 44.6417H159.054V41.2184H163.286C165.956 41.2184 167.722 41.815 168.667 42.4111C170.474 43.5262 170.721 45.1606 170.721 46.2762V52.0337C170.721 52.7603 170.639 53.5905 169.653 54.238C168.626 54.9127 167.189 54.965 165.956 54.965L159.054 54.9645ZM173.186 54.965H188.058C189.906 54.965 191.796 54.9391 193.233 54.1866C194.096 53.7199 195 52.8116 195 51.2299C195 50.4515 194.754 49.4923 193.686 48.7398C192.576 47.9619 191.262 47.8838 190.482 47.9101V47.8061C192.083 47.8583 193.11 47.3912 193.686 47.0018C194.63 46.3279 194.836 45.3942 194.836 44.6681C194.836 43.8638 194.63 42.7746 193.358 42.0485C191.836 41.1924 189.536 41.2183 188.016 41.2183H173.597V44.694H184.648C185.51 44.694 186.865 44.6935 186.865 45.5237C186.865 46.3279 185.469 46.3538 184.607 46.3538H173.802V49.5177H184.565C185.469 49.5177 186.948 49.57 186.948 50.4256C186.948 51.2558 185.552 51.2812 184.648 51.2812H173.186V54.965ZM148.866 44.6417H159.054V41.2184H148.866V44.6417ZM159.054 46.3016V49.57H156.959C156.713 49.57 156.138 49.5955 155.768 49.8036C155.48 49.9849 155.439 50.2184 155.439 50.4515C155.439 50.6597 155.48 50.8669 155.768 51.0482C156.055 51.204 156.508 51.2812 156.878 51.2812H159.054V54.9645H153.139C151.784 54.9645 150.304 54.9127 149.154 54.2379C147.898 53.5225 147.533 52.3311 147.428 51.3196V49.5386C147.541 48.5586 147.94 47.5415 149.277 46.8982C150.469 46.328 151.866 46.3016 153.139 46.3016H159.054ZM147.428 44.694H147.469V41.2184H147.428V44.694ZM147.428 41.2184V44.694L135.639 44.6935C135.269 44.6935 134.776 44.8239 134.529 45.0052C134.324 45.1347 134.119 45.3942 134.119 45.9127V54.965H126.067V43.8384C126.067 43.319 126.067 42.5929 126.683 42.0485C126.97 41.7891 127.792 41.2184 129.435 41.2184H147.428ZM147.428 49.5386C147.396 49.8235 147.387 50.1051 147.387 50.3738C147.387 50.6509 147.393 50.9751 147.428 51.3196V49.5386ZM88.8885 55.125V51.4371C91.0657 51.4371 92.0516 50.8409 92.4219 50.5038C93.0789 49.9331 93.2434 49.0775 93.2434 48.0919C93.2434 46.6388 92.8736 45.9903 92.4628 45.6273C92.0516 45.2911 91.1071 44.7458 88.8885 44.7458V41.0625C92.3392 41.0625 96.2012 41.1402 98.5833 42.4634C101.295 43.9933 101.459 46.7169 101.459 48.0919C101.459 49.4664 101.295 52.1896 98.5833 53.72C96.2007 55.0468 92.3392 55.125 88.8885 55.125ZM124.094 54.965V51.4894H116.125C114.893 51.4894 112.798 51.5671 111.812 50.5551C111.606 50.322 111.154 49.7513 111.154 48.1691C111.155 47.4694 111.236 46.8982 111.524 46.3539C111.976 45.4719 112.92 44.6935 115.674 44.6935L123.643 44.694V41.2184H111.935C109.347 41.2184 107.046 41.5296 105.362 42.6452C103.103 44.1233 102.938 46.2762 102.938 48.2732C102.938 50.3738 103.185 52.0855 104.869 53.331C106.841 54.8087 109.675 54.9645 111.524 54.9645L124.094 54.965ZM65.9659 47.5989C66.089 47.3653 66.2535 47.2354 66.4175 47.2354C66.4997 47.2354 66.7051 47.2881 66.7051 47.5471L66.2944 54.965H74.3458V43.6825C74.3458 41.8668 71.4703 41.0625 68.5538 41.0625C65.5547 41.0625 63.7882 41.6591 62.9258 43.19L59.516 49.1552C59.3106 49.5178 58.9817 49.7513 58.7354 49.7513C58.4887 49.7513 58.1607 49.5178 57.9548 49.1552L54.5454 43.19C53.6826 41.6591 51.9157 41.0625 48.9175 41.0625C46.0006 41.0625 43.125 41.8668 43.125 43.6825V54.965H51.1765L50.7657 47.5725C50.7657 47.3394 50.9302 47.2613 51.0533 47.2613C51.2178 47.2613 51.3823 47.3912 51.5049 47.6248L54.9562 53.7718C55.6131 54.965 57.1334 55.125 58.7354 55.125C60.3374 55.125 61.8577 54.9645 62.5151 53.7718L65.9659 47.5989ZM88.8885 41.0625V44.7458C86.6704 44.7458 85.7258 45.2911 85.3146 45.6273C85.027 45.8867 84.5341 46.4834 84.5341 48.0919C84.5341 49.5955 84.9857 50.2184 85.3146 50.5038C85.4786 50.6596 86.4237 51.4371 88.8885 51.4371V55.125C85.4378 55.125 81.5763 55.0468 79.1937 53.72C76.4826 52.1896 76.3177 49.4664 76.3177 48.0919C76.3177 46.7169 76.4826 43.9933 79.1937 42.4634C81.5763 41.1402 85.4378 41.0625 88.8885 41.0625Z" fill="#696868"/>
<path fill-rule="evenodd" clip-rule="evenodd" d="M29.7977 54.6953C32.4818 49.6853 36.1658 45.2397 38.202 39.9604C40.7735 33.2948 40.5924 25.989 39.7619 19.0482C38.9959 12.6451 36.4105 5.96536 33.511 0.75C32.5237 12.9651 29.3561 19.7944 25.4725 26.2896C20.1394 35.2107 16.6505 41.8527 20.1736 53.5982C22.3563 60.8727 25.2234 62.5582 26.982 66.375C26.5625 65.1922 26.1664 64.3245 25.815 62.5659C24.8025 57.4975 25.3387 53.7727 25.7519 51.6764C26.3755 48.5079 27.3123 45.6554 30.6597 40.2483C29.9622 45.096 29.6959 50.0589 29.7977 54.6953Z" fill="#F99000"/>
</svg>
