<svg width="156" height="76" viewBox="0 0 156 76" fill="none" xmlns="http://www.w3.org/2000/svg">
<path fill-rule="evenodd" clip-rule="evenodd" d="M42.9907 61.6924C39.3663 63.1383 35.7399 64.5846 32.0782 65.8915C16.579 71.4242 2.56326 71.8369 0.778777 66.8138C0.644261 66.4357 0.108433 65.137 0 64.7351C0.162835 64.9282 0.476209 65.1893 0.61557 65.2935C4.21695 67.9889 11.4406 68.1035 21.6291 65.6435C24.944 64.7982 28.6307 63.7572 32.4266 62.3882C35.5171 61.2733 39.209 59.7549 42.9919 58.2148V61.6341L42.9907 61.6924Z" fill="white"/>
<path fill-rule="evenodd" clip-rule="evenodd" d="M50.3608 53.1868C44.0037 55.8043 37.6822 58.5958 31.2903 61.1023C15.8883 67.1408 1.96 67.5913 0.186704 62.1085C-1.29888 57.5142 6.22088 50.2102 17.7579 44.4106L18.3074 46.028C9.52568 50.8633 3.94918 56.3249 5.05559 59.5832C6.47675 63.7679 18.3796 62.7352 31.6366 57.2777C37.8822 54.7071 44.1156 52.0946 50.3619 49.5232V53.1147L50.3608 53.1868Z" fill="white"/>
<path fill-rule="evenodd" clip-rule="evenodd" d="M36.8502 69.4339C35.798 69.8562 34.7448 70.2731 33.6901 70.6823C18.1481 76.7154 4.87117 76.8407 3.16706 71.4995C3.04189 71.1073 2.56189 69.9032 2.45668 69.4882C2.61523 69.6884 2.91999 69.9572 3.05604 70.0652C6.56258 72.8482 13.5956 72.9662 23.5162 70.4262C26.7434 69.553 30.3334 68.4785 34.029 67.065C34.92 66.7245 35.8622 66.3473 36.8429 65.9431L36.8502 66.4167V69.4339Z" fill="white"/>
<path fill-rule="evenodd" clip-rule="evenodd" d="M127.243 47.4041V44.1758H128.854C129.182 44.1758 129.609 44.1308 129.806 44.0168C130.102 43.8579 130.135 43.6309 130.135 43.4258V42.6759H127.243V39.8112H130.135V39.6296C130.135 39.4249 130.102 39.1066 129.806 38.8338C129.313 38.3794 128.492 38.3563 127.835 38.3563H127.243V35.3558H130.628C132.764 35.3558 134.177 35.8787 134.933 36.4012C136.379 37.3786 136.576 38.8111 136.576 39.7889V44.8353C136.576 45.4721 136.511 46.1997 135.722 46.7673C134.9 47.3587 133.75 47.4045 132.764 47.4045L127.243 47.4041ZM138.549 47.4046H150.446C151.925 47.4046 153.437 47.3819 154.587 46.7223C155.277 46.3133 156 45.5172 156 44.1308C156 43.4486 155.803 42.6079 154.949 41.9483C154.061 41.2665 153.01 41.198 152.385 41.2211V41.1299C153.667 41.1757 154.488 40.7663 154.949 40.425C155.704 39.8344 155.869 39.0159 155.869 38.3795C155.869 37.6746 155.704 36.7199 154.686 36.0835C153.469 35.3332 151.629 35.3559 150.413 35.3559H138.878V38.4022H147.718C148.408 38.4022 149.492 38.4018 149.492 39.1294C149.492 39.8344 148.376 39.8571 147.686 39.8571H139.042V42.6302H147.653C148.376 42.6302 149.559 42.676 149.559 43.4259C149.559 44.1535 148.442 44.1758 147.718 44.1758H138.549V47.4046ZM119.093 38.3563H127.243V35.3558H119.093V38.3563ZM127.243 39.809V42.6737H125.567C125.37 42.6737 124.91 42.696 124.614 42.8784C124.384 43.0373 124.351 43.242 124.351 43.4463C124.351 43.6288 124.384 43.8104 124.614 43.9693C124.844 44.1059 125.206 44.1736 125.502 44.1736H127.243V47.4019H122.511C121.427 47.4019 120.243 47.3565 119.323 46.7651C118.318 46.138 118.026 45.0938 117.942 44.2072V42.6461C118.032 41.7872 118.352 40.8958 119.422 40.3319C120.375 39.8321 121.492 39.809 122.511 39.809H127.243ZM117.942 38.4021H117.975V35.3558H117.942V38.4021ZM117.942 35.3558V38.4021L108.511 38.4017C108.214 38.4017 107.821 38.516 107.623 38.6749C107.459 38.7884 107.294 39.0158 107.294 39.4703V47.4045H100.853V37.6522C100.853 37.197 100.853 36.5605 101.346 36.0834C101.576 35.856 102.233 35.3558 103.547 35.3558H117.942ZM117.941 42.6461C117.916 42.8958 117.909 43.1426 117.909 43.3782C117.909 43.621 117.913 43.9051 117.941 44.2071V42.6461ZM71.1107 47.5427V44.3103C72.8524 44.3103 73.6412 43.7878 73.9374 43.4923C74.463 42.992 74.5946 42.2421 74.5946 41.3783C74.5946 40.1046 74.2987 39.5363 73.9701 39.2181C73.6412 38.9234 72.8855 38.4454 71.1107 38.4454V35.2171C73.8712 35.2171 76.9608 35.2852 78.8665 36.445C81.0357 37.7859 81.1673 40.1731 81.1673 41.3783C81.1673 42.583 81.0357 44.9698 78.8665 46.3112C76.9604 47.4742 73.8712 47.5427 71.1107 47.5427ZM99.2756 47.4045V44.3582H92.9003C91.9145 44.3582 90.2386 44.4263 89.4498 43.5393C89.2852 43.335 88.9235 42.8348 88.9235 41.448C88.9242 40.8347 88.9889 40.3341 89.219 39.857C89.5807 39.0839 90.3363 38.4017 92.539 38.4017L98.9143 38.4021V35.3558H89.548C87.478 35.3558 85.637 35.6286 84.2896 36.6064C82.4827 37.9019 82.3504 39.7889 82.3504 41.5393C82.3504 43.3804 82.5482 44.8807 83.8956 45.9723C85.473 47.2675 87.7404 47.4041 89.219 47.4041L99.2756 47.4045ZM52.7723 40.9461C52.8708 40.7414 53.0023 40.6275 53.1336 40.6275C53.1993 40.6275 53.3636 40.6737 53.3636 40.9007L53.0351 47.4024H59.4762V37.5134C59.4762 35.922 57.1758 35.217 54.8426 35.217C52.4433 35.217 51.0301 35.74 50.3402 37.0817L47.6124 42.3102C47.4481 42.628 47.1849 42.8327 46.9879 42.8327C46.7906 42.8327 46.5281 42.628 46.3635 42.3102L43.636 37.0817C42.9457 35.74 41.5322 35.217 39.1336 35.217C36.8001 35.217 34.4996 35.922 34.4996 37.5134V47.4024H40.9408L40.6122 40.923C40.6122 40.7187 40.7438 40.6502 40.8423 40.6502C40.9739 40.6502 41.1054 40.7641 41.2036 40.9688L43.9645 46.3565C44.4901 47.4024 45.7063 47.5426 46.9879 47.5426C48.2695 47.5426 49.4857 47.402 50.0117 46.3565L52.7723 40.9461ZM71.1108 35.2171V38.4454C69.3364 38.4454 68.5807 38.9234 68.2518 39.2181C68.0217 39.4455 67.6273 39.9684 67.6273 41.3783C67.6273 42.6961 67.9886 43.2422 68.2518 43.4923C68.383 43.6289 69.139 44.3103 71.1108 44.3103V47.5427C68.3503 47.5427 65.2611 47.4742 63.355 46.3112C61.1862 44.9698 61.0542 42.583 61.0542 41.3783C61.0542 40.1731 61.1862 37.7859 63.355 36.445C65.2611 35.2852 68.3503 35.2171 71.1108 35.2171Z" fill="white"/>
<path fill-rule="evenodd" clip-rule="evenodd" d="M23.5509 46.4631C25.6916 42.148 28.6297 38.319 30.2536 33.772C32.3045 28.0309 32.16 21.7384 31.4977 15.7603C30.8868 10.2452 28.8248 4.492 26.5124 0C25.725 10.5209 23.1988 16.403 20.1015 21.9973C15.8482 29.681 13.0657 35.4018 15.8755 45.5182C17.6162 51.7837 19.9028 53.2355 21.3053 56.5229C20.9708 55.5041 20.6549 54.7568 20.3746 53.2421C19.5671 48.8766 19.9948 45.6685 20.3243 43.863C20.8216 41.1339 21.5687 38.6771 24.2384 34.0199C23.6821 38.1952 23.4697 42.4697 23.5509 46.4631Z" fill="#F99000"/>
</svg>
